<svg id="Layer_1" data-name="Layer 1" xmlns="http://www.w3.org/2000/svg" viewBox="0 0 198.43 325.27"><defs><style>.cls-1{fill:#171133;}.cls-2{font-size:18px;}.cls-2,.cls-3,.cls-8{fill:#f19953;}.cls-2,.cls-3{font-family:Quattrocento-Bold, Quattrocento;font-weight:700;}.cls-3{font-size:13px;}.cls-4{letter-spacing:-0.01em;}.cls-5{letter-spacing:-0.01em;}.cls-6{letter-spacing:-0.02em;}.cls-7{fill:none;stroke-linejoin:round;stroke-width:0.75px;}.cls-7,.cls-9{stroke:#f19953;stroke-linecap:round;}.cls-9{fill:#181233;stroke-miterlimit:10;}</style></defs><title>Artboard 7 copy</title><rect class="cls-1" width="198.43" height="325.27" rx="18.86"/><text class="cls-2" transform="translate(79.03 39.07)">XVII</text><text class="cls-3" transform="translate(74.84 295.45)"><tspan class="cls-4">T</tspan><tspan x="7.51" y="0">he </tspan><tspan class="cls-5" x="25.38" y="0">S</tspan><tspan x="32.51" y="0">ta</tspan><tspan class="cls-6" x="43.61" y="0">r</tspan></text><rect class="cls-7" x="21.26" y="20.9" width="155.91" height="283.46" rx="11.27"/><path class="cls-7" d="M163,13.82H35.43A21.26,21.26,0,0,1,14.17,35v255.2a21.26,21.26,0,0,1,21.26,21.26H163a21.26,21.26,0,0,1,21.26-21.26V35.08A21.26,21.26,0,0,1,163,13.82Z"/><line class="cls-7" x1="21.26" y1="276.2" x2="177.17" y2="276.2"/><path class="cls-8" d="M99.9,196.66l-.05-.1-.07.13A3,3,0,0,1,98.44,198l-.08,0h0a2.85,2.85,0,0,1,1.48,1.46v0l.07-.15a2.88,2.88,0,0,1,1.36-1.31l0,0-.11-.06A2.88,2.88,0,0,1,99.9,196.66Z"/><path class="cls-8" d="M72.06,136.41l0-.1-.07.13a2.88,2.88,0,0,1-1.34,1.31l-.08,0h0A2.94,2.94,0,0,1,72,139.26v0l.07-.15a2.88,2.88,0,0,1,1.36-1.31l0,0-.11,0A2.9,2.9,0,0,1,72.06,136.41Z"/><path class="cls-8" d="M123.75,136.41l0-.1-.06.13a2.88,2.88,0,0,1-1.34,1.31l-.08,0h0a3,3,0,0,1,1.48,1.47v0l.08-.15a2.86,2.86,0,0,1,1.35-1.31l.06,0-.11,0A2.9,2.9,0,0,1,123.75,136.41Z"/><path class="cls-8" d="M72.06,185.19l0-.1-.07.13a3,3,0,0,1-1.34,1.32l-.08,0h0A2.93,2.93,0,0,1,72,188v0l.07-.15a3,3,0,0,1,1.36-1.31l0,0-.11-.06A2.9,2.9,0,0,1,72.06,185.19Z"/><path class="cls-8" d="M123.75,185.19l0-.1-.06.13a3,3,0,0,1-1.34,1.32l-.08,0h0A3,3,0,0,1,123.7,188v0l.08-.15a3,3,0,0,1,1.35-1.31l.06,0-.11-.06A2.9,2.9,0,0,1,123.75,185.19Z"/><rect class="cls-8" x="69.7" y="96.14" width="0.98" height="5.89" transform="translate(-34.23 37.12) rotate(-24)"/><rect class="cls-8" x="127.38" y="225.69" width="0.98" height="5.89" transform="translate(-81.94 71.78) rotate(-24)"/><polygon class="cls-8" points="48.85 118.02 44.48 114.08 43.82 114.81 48.2 118.75 48.85 118.02"/><polygon class="cls-8" points="55.21 123.75 52.39 121.2 51.73 121.93 54.55 124.47 55.21 123.75"/><path class="cls-8" d="M142.15,203.34l.65-.73-1.45-1.31c-.15.31-.29.62-.45.92Z"/><rect class="cls-8" x="151.24" y="208.36" width="0.98" height="5.89" transform="translate(-106.83 182.71) rotate(-48.01)"/><rect class="cls-8" x="37.13" y="125.46" width="0.98" height="5.89" transform="translate(-92.39 96.8) rotate(-60.01)"/><path class="cls-8" d="M146.94,192.09l.49-.85-2.41-1.4c-.06.34-.13.68-.2,1Z"/><path class="cls-8" d="M51.12,135.63l-.49.85,2.17,1.25c.05-.34.11-.69.17-1Z"/><rect class="cls-8" x="159.95" y="196.37" width="0.98" height="5.89" transform="translate(-92.39 238.6) rotate(-60)"/><rect class="cls-8" x="28.02" y="153.5" width="0.98" height="5.89" transform="translate(-130.06 168.46) rotate(-84)"/><rect class="cls-8" x="37.57" y="155.55" width="0.98" height="3.8" transform="translate(-122.51 178.82) rotate(-83.99)"/><rect class="cls-8" x="154.79" y="167.87" width="0.98" height="3.8" transform="translate(-29.78 306.47) rotate(-84.01)"/><polygon class="cls-8" points="148.61 169.56 148.71 168.59 145.79 168.28 145.79 169.27 148.61 169.56"/><path class="cls-8" d="M49.35,159.13l.26,0-.24-.23Z"/><rect class="cls-8" x="169.06" y="168.33" width="0.98" height="5.89" transform="translate(-18.5 322) rotate(-84)"/><rect class="cls-8" x="25.57" y="170.78" width="5.89" height="0.98" transform="translate(-17.74 3.92) rotate(-6)"/><polygon class="cls-8" points="43.68 169.19 43.78 170.16 52.27 169.27 52.27 168.28 43.68 169.19"/><path class="cls-8" d="M148.42,159.16l6-.62-.11-1-4.77.5A14.11,14.11,0,0,1,148.42,159.16Z"/><rect class="cls-8" x="166.61" y="155.96" width="5.89" height="0.98" transform="translate(-15.32 18.44) rotate(-5.96)"/><rect class="cls-8" x="34.68" y="198.82" width="5.89" height="0.98" transform="translate(-94.68 45.57) rotate(-30.02)"/><rect class="cls-8" x="44.04" y="194.02" width="3.8" height="0.98" transform="translate(-91.13 49.06) rotate(-30.01)"/><rect class="cls-8" x="146.11" y="135.09" width="3.8" height="0.98" transform="translate(-47.98 92.25) rotate(-30.02)"/><rect class="cls-8" x="157.5" y="127.92" width="5.89" height="0.98" transform="translate(-42.72 97.51) rotate(-30.02)"/><rect class="cls-8" x="43.39" y="210.82" width="5.89" height="0.98" transform="translate(-129.56 85.37) rotate(-42.03)"/><polygon class="cls-8" points="154.25 114.81 153.59 114.08 149.21 118.02 149.87 118.75 154.25 114.81"/><rect class="cls-8" x="67.25" y="228.15" width="5.89" height="0.98" transform="translate(-167.25 199.92) rotate(-66.04)"/><path class="cls-8" d="M72.87,221.41l.9.4.36-.81-.84-.54Z"/><rect class="cls-8" x="124.93" y="98.59" width="5.89" height="0.98" transform="translate(-14.6 175.69) rotate(-66.04)"/><rect class="cls-8" x="137.67" y="215.76" width="0.98" height="3.93" transform="translate(-101.59 122.8) rotate(-36)"/><rect class="cls-8" x="58.59" y="102.99" width="0.98" height="11.78" transform="translate(-52.71 55.53) rotate(-36)"/><rect class="cls-8" x="161.86" y="182.47" width="0.98" height="3.93" transform="translate(-63.21 281.89) rotate(-72.01)"/><polygon class="cls-8" points="145.79 179.57 155.66 182.78 155.96 181.84 145.79 178.54 145.79 179.57"/><path class="cls-8" d="M44.82,145.73l-.3.93,1.39.46c.12-.31.25-.61.39-.91Z"/><rect class="cls-8" x="33.9" y="136.97" width="0.98" height="11.78" transform="translate(-112.1 131.43) rotate(-72)"/><rect class="cls-8" x="28.5" y="184.37" width="11.78" height="0.98" transform="translate(-55.44 19.67) rotate(-18)"/><rect class="cls-8" x="44.57" y="180.43" width="3.93" height="0.98" transform="translate(-53.65 23.25) rotate(-18.01)"/><path class="cls-8" d="M152.15,147.12l3.81-1.24-.3-.93-3.89,1.26.1.21A6,6,0,0,1,152.15,147.12Z"/><rect class="cls-8" x="160.38" y="142.8" width="3.93" height="0.98" transform="translate(-36.3 57.11) rotate(-17.98)"/><rect class="cls-8" x="53.19" y="218.35" width="11.78" height="0.98" transform="translate(-152.66 137.93) rotate(-53.98)"/><rect class="cls-8" x="136.2" y="109.51" width="3.93" height="0.98" transform="translate(-32.06 157.06) rotate(-53.98)"/><polygon class="cls-8" points="95.53 247.79 96.15 249.32 96 249.58 95.32 247.88 95.53 247.79"/><polygon class="cls-8" points="102.74 265.72 102.53 265.81 101.96 264.39 102.11 264.13 102.74 265.72"/><polygon class="cls-8" points="95.96 264.13 96.11 264.39 95.53 265.81 95.32 265.72 95.96 264.13"/><polygon class="cls-8" points="102.74 247.88 102.06 249.58 101.92 249.33 102.53 247.79 102.74 247.88"/><polygon class="cls-8" points="101.29 257.96 109.47 256.62 101.29 255.28 103.64 252.01 100.37 254.37 99.03 246.18 97.69 254.37 94.43 252.01 96.78 255.28 88.59 256.62 96.78 257.96 94.43 261.23 97.69 258.88 99.03 267.06 100.37 258.88 103.64 261.23 101.29 257.96"/><polygon class="cls-8" points="94.3 64.89 93.58 65.61 93.33 65.36 94.06 64.64 94.3 64.89"/><polygon class="cls-8" points="94.36 55.07 94.12 55.32 93.38 54.58 93.62 54.33 94.36 55.07"/><polygon class="cls-8" points="92.92 62.49 89.9 63.64 89.78 63.31 92.23 62.38 92.92 62.49"/><polygon class="cls-8" points="93.14 57.49 92.48 57.6 89.82 56.55 89.95 56.23 93.14 57.49"/><polygon class="cls-8" points="96.5 65.82 96.61 66.49 95.53 69.18 95.2 69.05 96.5 65.82"/><polygon class="cls-8" points="95.64 50.76 96.64 53.34 96.53 54.02 95.31 50.89 95.64 50.76"/><polygon class="cls-8" points="102.75 69.09 102.43 69.22 101.43 66.64 101.54 65.97 102.75 69.09"/><polygon class="cls-8" points="102.86 50.93 101.56 54.18 101.45 53.51 102.54 50.8 102.86 50.93"/><rect class="cls-8" x="104.03" y="64.65" width="0.35" height="1.02" transform="translate(-15.55 92.79) rotate(-45.01)"/><rect class="cls-8" x="103.72" y="54.69" width="1.05" height="0.35" transform="translate(-8.55 88.84) rotate(-44.52)"/><polygon class="cls-8" points="108.25 63.42 108.12 63.75 104.99 62.52 105.66 62.41 108.25 63.42"/><polygon class="cls-8" points="108.29 56.67 105.76 57.63 105.08 57.52 108.17 56.34 108.29 56.67"/><polygon class="cls-8" points="101.29 61.35 109.47 60.01 101.29 58.67 103.64 55.41 100.37 57.76 99.03 49.57 97.69 57.76 94.43 55.41 96.78 58.67 88.59 60.01 96.78 61.35 94.43 64.61 97.69 62.26 99.03 70.45 100.37 62.26 103.64 64.61 101.29 61.35"/><path class="cls-9" d="M92.27,162.63s-9-10.95-11.43-16.47S81.78,125,79,117s-9.53-8.73-11.13-7.6c3.91,3.28,4.11,4.39,3.41,9.15s-2.78,25.55,2.88,32.87C80.84,160.06,92.27,162.63,92.27,162.63Z"/><path class="cls-8" d="M75.93,135.16a44.67,44.67,0,0,0-.26,7.2,35.37,35.37,0,0,0,.31,3.56c.09.59.17,1.18.31,1.76a4.59,4.59,0,0,0,.61,1.68,3.66,3.66,0,0,1-1.08-1.52,12.21,12.21,0,0,1-.61-1.76,17.58,17.58,0,0,1-.54-3.68A15.73,15.73,0,0,1,75.93,135.16Z"/><path class="cls-8" d="M69.74,110.06a8.7,8.7,0,0,1,4.88,3.09,14.71,14.71,0,0,1,2.67,5.24,24.87,24.87,0,0,1,.42,11.53q0-2.89-.31-5.71a31.18,31.18,0,0,0-1.07-5.54,16.89,16.89,0,0,0-2.33-5A10.19,10.19,0,0,0,69.74,110.06Z"/><ellipse class="cls-9" cx="52.3" cy="117.42" rx="15.94" ry="12.76" transform="translate(-70.36 78.98) rotate(-48.59)"/><path class="cls-9" d="M52.71,104.8H71.14a0,0,0,0,1,0,0v0a3.42,3.42,0,0,1-3.42,3.42H56.13a3.42,3.42,0,0,1-3.42-3.42v0A0,0,0,0,1,52.71,104.8Z" transform="matrix(0.75, 0.66, -0.66, 0.75, 85.92, -14.33)"/><polygon class="cls-8" points="110.12 174.36 141.56 169.22 110.12 164.08 119.14 151.53 106.59 160.56 101.45 129.12 96.31 160.56 83.76 151.53 92.79 164.08 61.35 169.22 92.79 174.36 83.76 186.91 96.31 177.88 101.45 209.32 106.59 177.88 119.14 186.91 110.12 174.36"/><path class="cls-9" d="M59,106.22c-7.85,2.34-16.91,3.79-19.52,20.85"/><ellipse class="cls-9" cx="111.99" cy="230.84" rx="32.83" ry="2.66"/><ellipse class="cls-9" cx="111.99" cy="230.66" rx="17.73" ry="0.87"/><path class="cls-9" d="M106.44,231.57s7.66-8.24,10.06-13.75,1.71-13.44,4.52-21.46,9.52-8.73,11.13-7.6c-3.91,3.28-4.11,4.39-3.41,9.15s3.71,24-3.71,29.53S106.44,231.57,106.44,231.57Z"/><path class="cls-8" d="M124.36,212.34a15.64,15.64,0,0,1-1,7.28,17.45,17.45,0,0,1-1.62,3.34,11.6,11.6,0,0,1-1.12,1.49,3.54,3.54,0,0,1-1.48,1.12,4.69,4.69,0,0,0,1.09-1.41c.3-.51.56-1,.82-1.58q.76-1.62,1.38-3.3A44.13,44.13,0,0,0,124.36,212.34Z"/><path class="cls-8" d="M130.24,189.47A10.32,10.32,0,0,0,126,193a17.12,17.12,0,0,0-2.32,5,31.18,31.18,0,0,0-1.07,5.54c-.2,1.88-.29,3.78-.31,5.71a24.87,24.87,0,0,1,.42-11.53,14.67,14.67,0,0,1,2.67-5.23A8.67,8.67,0,0,1,130.24,189.47Z"/><ellipse class="cls-9" cx="147.69" cy="196.83" rx="12.76" ry="15.94" transform="translate(-93.27 146.88) rotate(-41.41)"/><path class="cls-9" d="M132.26,184.21h11.6a3.42,3.42,0,0,1,3.42,3.42v0a0,0,0,0,1,0,0H128.85a0,0,0,0,1,0,0v0A3.42,3.42,0,0,1,132.26,184.21Z" transform="translate(364.58 234.04) rotate(138.59)"/><path class="cls-9" d="M141.48,185.18c3.1,1.16,15.35,1.68,19.93,19.1"/></svg>