<svg id="Layer_1" data-name="Layer 1" xmlns="http://www.w3.org/2000/svg" viewBox="0 0 198.43 325.98"><defs><style>.cls-1{fill:#252151;}.cls-2{fill:#f19953;}</style></defs><title>Artboard 1</title><rect class="cls-1" y="0.36" width="198.43" height="325.27" rx="18.86"/><path class="cls-2" d="M184.25,35.06a20.72,20.72,0,0,1-6.71-1.13v-1.4a11.65,11.65,0,0,0-11.65-11.64h-1.4a21,21,0,0,1-1.12-6.72.38.38,0,0,0-.38-.37H35.43a.38.38,0,0,0-.38.37,20.8,20.8,0,0,1-1.16,6.72H32.53A11.66,11.66,0,0,0,20.88,32.53v1.31A20.72,20.72,0,0,1,14.17,35a.38.38,0,0,0-.37.38v255.2a.38.38,0,0,0,.37.38,20.67,20.67,0,0,1,6.71,1.12v1.4A11.66,11.66,0,0,0,32.53,305.1h1.4a20.72,20.72,0,0,1,1.13,6.71.38.38,0,0,0,.37.38H163a.38.38,0,0,0,.38-.38,21,21,0,0,1,1.12-6.71h1.4a11.66,11.66,0,0,0,11.65-11.65v-1.4a20.71,20.71,0,0,1,6.71-1.12.38.38,0,0,0,.38-.38V35.43A.38.38,0,0,0,184.25,35.06ZM165.89,21.64a10.9,10.9,0,0,1,10.9,10.89v1.13a21,21,0,0,1-12-12Zm10.9,12.82V291.53A21.71,21.71,0,0,0,164,304.35H34.46a21.72,21.72,0,0,0-12.83-12.82V34.37A21.75,21.75,0,0,0,34.42,21.64H164A21.73,21.73,0,0,0,176.79,34.46ZM35.8,14.55H162.62a21.49,21.49,0,0,0,1.07,6.34H34.7A21.51,21.51,0,0,0,35.8,14.55Zm-14.17,18a10.9,10.9,0,0,1,10.9-10.89h1.09a21,21,0,0,1-12,11.93ZM14.55,290.18V35.72a21.37,21.37,0,0,0,6.33-1.07v256.6A21.37,21.37,0,0,0,14.55,290.18Zm18,14.17a10.91,10.91,0,0,1-10.9-10.9v-1.12a21,21,0,0,1,12,12Zm130.09,7.09H35.8a21.43,21.43,0,0,0-1.06-6.34h129A21.44,21.44,0,0,0,162.62,311.44Zm14.17-18a10.91,10.91,0,0,1-10.9,10.9h-1.12a20.93,20.93,0,0,1,12-12Zm7.09-3.27a21.44,21.44,0,0,0-6.34,1.07V34.74a21.43,21.43,0,0,0,6.34,1.06Z"/><polygon class="cls-2" points="91.3 109.79 91.64 110.13 92.65 109.14 92.31 108.8 91.3 109.79"/><polygon class="cls-2" points="92.73 95.51 91.7 94.49 91.36 94.83 92.39 95.86 92.73 95.51"/><polygon class="cls-2" points="86.37 106.95 86.54 107.4 90.73 105.81 89.78 105.65 86.37 106.95"/><polygon class="cls-2" points="91.04 98.87 86.61 97.13 86.43 97.57 90.12 99.02 91.04 98.87"/><polygon class="cls-2" points="93.9 114.91 94.35 115.09 95.85 111.36 95.7 110.43 93.9 114.91"/><polygon class="cls-2" points="95.89 93.11 94.5 89.53 94.05 89.71 95.74 94.05 95.89 93.11"/><polygon class="cls-2" points="102.54 111.58 103.93 115.15 104.38 114.97 102.69 110.64 102.54 111.58"/><polygon class="cls-2" points="104.53 89.77 104.08 89.59 102.57 93.35 102.72 94.27 104.53 89.77"/><rect class="cls-2" x="106.15" y="108.81" width="0.49" height="1.42" transform="translate(-46.28 107.3) rotate(-45)"/><rect class="cls-2" x="105.71" y="94.99" width="1.46" height="0.48" transform="translate(-36.21 102.27) rotate(-44.64)"/><polygon class="cls-2" points="107.48 105.85 111.83 107.56 112 107.11 108.41 105.69 107.48 105.85"/><polygon class="cls-2" points="112.06 97.73 111.89 97.28 107.6 98.91 108.55 99.06 112.06 97.73"/><polygon class="cls-2" points="94.06 208.58 95.01 210.94 95.21 210.58 94.36 208.46 94.06 208.58"/><polygon class="cls-2" points="103.27 231.49 104.07 233.46 104.36 233.34 103.48 231.13 103.27 231.49"/><polygon class="cls-2" points="94.06 233.34 94.36 233.46 95.15 231.49 94.94 231.13 94.06 233.34"/><polygon class="cls-2" points="103.21 210.59 103.42 210.93 104.36 208.58 104.07 208.46 103.21 210.59"/><path class="cls-2" d="M100.08,124.46l0-.11-.07.13a2.9,2.9,0,0,1-1.34,1.32l-.08,0a2.87,2.87,0,0,1,1.48,1.47h0l.07-.15a3,3,0,0,1,1.36-1.31l.05,0-.11,0A3,3,0,0,1,100.08,124.46Z"/><path class="cls-2" d="M100.08,195.56l0-.1-.07.13a2.9,2.9,0,0,1-1.34,1.32l-.08,0a2.87,2.87,0,0,1,1.48,1.47h0l.07-.15a3,3,0,0,1,1.36-1.31l.05,0-.11-.06A2.88,2.88,0,0,1,100.08,195.56Z"/><path class="cls-2" d="M72.25,135.31l0-.1-.07.13a2.9,2.9,0,0,1-1.34,1.32l-.08,0a2.91,2.91,0,0,1,1.48,1.47h0l.07-.15a3,3,0,0,1,1.36-1.31l.05,0-.11-.06A2.84,2.84,0,0,1,72.25,135.31Z"/><path class="cls-2" d="M123.93,135.31l-.05-.1-.06.13a2.9,2.9,0,0,1-1.34,1.32l-.08,0a2.91,2.91,0,0,1,1.48,1.47h0L124,138a3,3,0,0,1,1.35-1.31l.06,0-.11-.06A2.9,2.9,0,0,1,123.93,135.31Z"/><path class="cls-2" d="M72.25,184.1l0-.11-.07.13a2.9,2.9,0,0,1-1.34,1.32l-.08,0A2.91,2.91,0,0,1,72.19,187h0l.07-.15a3,3,0,0,1,1.36-1.31l.05,0-.11-.06A2.86,2.86,0,0,1,72.25,184.1Z"/><path class="cls-2" d="M123.93,184.1l-.05-.11-.06.13a2.9,2.9,0,0,1-1.34,1.32l-.08,0a2.91,2.91,0,0,1,1.48,1.47h0l.08-.15a3,3,0,0,1,1.35-1.31l.06,0-.11-.06A2.93,2.93,0,0,1,123.93,184.1Z"/><rect class="cls-2" x="69.88" y="95.04" width="0.98" height="5.89" transform="translate(-33.77 37.1) rotate(-24)"/><rect class="cls-2" x="127.56" y="224.6" width="0.98" height="5.89" transform="translate(-81.48 71.75) rotate(-24)"/><polygon class="cls-2" points="49.04 116.92 44.66 112.98 44 113.71 48.38 117.65 49.04 116.92"/><polygon class="cls-2" points="51.91 120.83 54.73 123.38 55.39 122.65 52.57 120.1 51.91 120.83"/><path class="cls-2" d="M141.08,201.13l1.25,1.12.65-.74-1.45-1.31C141.38,200.51,141.24,200.82,141.08,201.13Z"/><rect class="cls-2" x="151.42" y="207.26" width="0.98" height="5.89" transform="translate(-105.96 182.48) rotate(-48.01)"/><rect class="cls-2" x="37.31" y="124.36" width="0.98" height="5.89" transform="translate(-91.35 96.41) rotate(-60.01)"/><path class="cls-2" d="M145,189.77l2.12,1.22.49-.85-2.41-1.39C145.14,189.09,145.07,189.43,145,189.77Z"/><path class="cls-2" d="M50.81,135.39,53,136.64c.05-.35.11-.69.17-1l-1.85-1.06Z"/><rect class="cls-2" x="160.13" y="195.27" width="0.98" height="5.89" transform="translate(-91.35 238.21) rotate(-60)"/><rect class="cls-2" x="28.2" y="152.41" width="0.98" height="5.89" transform="translate(-128.81 167.65) rotate(-84)"/><rect class="cls-2" x="37.75" y="154.45" width="0.98" height="3.8" transform="translate(-121.26 178.02) rotate(-83.99)"/><rect class="cls-2" x="154.97" y="166.77" width="0.98" height="3.8" transform="translate(-28.53 305.67) rotate(-84.01)"/><polygon class="cls-2" points="148.89 167.49 145.97 167.18 145.97 168.17 148.79 168.47 148.89 167.49"/><path class="cls-2" d="M49.55,157.84l0,.2.26,0Z"/><rect class="cls-2" x="169.24" y="167.23" width="0.98" height="5.89" transform="translate(-17.25 321.2) rotate(-84)"/><rect class="cls-2" x="25.75" y="169.68" width="5.89" height="0.98" transform="translate(-17.63 3.93) rotate(-6)"/><polygon class="cls-2" points="43.96 169.06 52.45 168.17 52.45 167.18 43.86 168.09 43.96 169.06"/><path class="cls-2" d="M148.61,158.07l6-.63-.11-1-4.77.5C149.36,157.34,149,157.71,148.61,158.07Z"/><rect class="cls-2" x="166.79" y="154.86" width="5.89" height="0.98" transform="translate(-15.21 18.45) rotate(-5.96)"/><rect class="cls-2" x="34.86" y="197.73" width="5.89" height="0.98" transform="translate(-94.11 45.52) rotate(-30.03)"/><rect class="cls-2" x="44.22" y="192.93" width="3.8" height="0.98" transform="translate(-90.56 49) rotate(-30.01)"/><rect class="cls-2" x="146.29" y="133.99" width="3.8" height="0.98" transform="translate(-47.41 92.2) rotate(-30.02)"/><rect class="cls-2" x="157.68" y="126.82" width="5.89" height="0.98" transform="translate(-42.15 97.44) rotate(-30.02)"/><rect class="cls-2" x="43.57" y="209.72" width="5.89" height="0.98" transform="translate(-128.77 85.21) rotate(-42.03)"/><polygon class="cls-2" points="154.43 113.71 153.77 112.98 149.39 116.92 150.05 117.65 154.43 113.71"/><rect class="cls-2" x="67.43" y="227.05" width="5.89" height="0.98" transform="translate(-166.14 199.43) rotate(-66.04)"/><path class="cls-2" d="M73.05,220.31l.9.4.36-.81-.84-.54Z"/><rect class="cls-2" x="125.11" y="97.49" width="5.89" height="0.98" transform="translate(-13.5 175.2) rotate(-66.04)"/><rect class="cls-2" x="137.85" y="214.66" width="0.98" height="3.93" transform="translate(-100.91 122.7) rotate(-36)"/><rect class="cls-2" x="58.77" y="101.89" width="0.98" height="11.78" transform="translate(-52.04 55.42) rotate(-36)"/><rect class="cls-2" x="162.04" y="181.37" width="0.98" height="3.93" transform="translate(-62.04 281.3) rotate(-72.01)"/><polygon class="cls-2" points="145.97 178.47 155.84 181.68 156.14 180.74 145.97 177.44 145.97 178.47"/><path class="cls-2" d="M46.09,146c.12-.31.25-.61.39-.91L45,144.63l-.3.94Z"/><rect class="cls-2" x="34.09" y="135.87" width="0.98" height="11.78" transform="translate(-110.93 130.84) rotate(-72)"/><rect class="cls-2" x="28.68" y="183.27" width="11.78" height="0.98" transform="translate(-55.09 19.68) rotate(-18)"/><rect class="cls-2" x="44.75" y="179.33" width="3.93" height="0.98" transform="translate(-53.3 23.25) rotate(-18.01)"/><path class="cls-2" d="M152.05,145.33a6.65,6.65,0,0,1,.28.69l3.81-1.24-.3-.93L152,145.11C152,145.18,152,145.25,152.05,145.33Z"/><rect class="cls-2" x="160.56" y="141.7" width="3.93" height="0.98" transform="translate(-35.96 57.12) rotate(-17.98)"/><rect class="cls-2" x="53.37" y="217.26" width="11.78" height="0.98" transform="translate(-151.7 137.62) rotate(-53.98)"/><rect class="cls-2" x="136.38" y="108.41" width="3.93" height="0.98" transform="translate(-31.1 156.75) rotate(-53.98)"/><path class="cls-2" d="M109.21,103.1l4.49-.73-11.36-1.86L105.6,96l-4.53,3.26L99.21,87.88,97.36,99.24,92.82,96l3.26,4.53-11.35,1.86,4.52.74a41,41,0,0,0-30.91,39.65v38.39a41,41,0,0,0,29,39.13l-2.62.43,1.08.18v.21h1.32l9,1.46-3.26,4.54,4.54-3.26,1.85,11.35,1.86-11.35,4.53,3.26-3.26-4.54,8.72-1.42h1.56v-.26l1.08-.17-2.59-.42a41,41,0,0,0,29-39.14V142.76A41,41,0,0,0,109.21,103.1Zm29.93,78.05a40,40,0,0,1-30.4,38.75l-6.4-1.05,3.26-4.53-4.53,3.26-1.86-11.35-1.85,11.35-4.54-3.26,3.26,4.53-6.36,1a40,40,0,0,1-30.38-38.74V142.76A40,40,0,0,1,92,103.55l4.13.67-3.26,4.54,4.54-3.26,1.85,11.35,1.86-11.35,4.53,3.26-3.26-4.54,4.17-.68a40,40,0,0,1,32.63,39.22Z"/></svg>