<svg width="173" height="173" viewBox="0 0 173 173" fill="none" xmlns="http://www.w3.org/2000/svg">
<g clip-path="url(#clip0_618_632)">
<path d="M86.3 172.6C133.962 172.6 172.6 133.962 172.6 86.3C172.6 38.6378 133.962 0 86.3 0C38.6378 0 0 38.6378 0 86.3C0 133.962 38.6378 172.6 86.3 172.6Z" fill="#171133"/>
<path d="M95 75.9L91.5 79.4L90.3 78.2L93.8 74.7L95 75.9Z" fill="#F19953"/>
<path d="M95.3 28.2001L94.1 29.4001L90.5 25.8001L91.7 24.6001L95.3 28.2001Z" fill="#F19953"/>
<path d="M88.3 64.3L73.6 69.8L73 68.1999L84.9 63.7L88.3 64.3Z" fill="#F19953"/>
<path d="M89.4001 39.9999L86.1001 40.4999L73.2001 35.3999L73.9001 33.8999L89.4001 39.9999Z" fill="#F19953"/>
<path d="M105.7 80.3999L106.2 83.5999L100.9 96.6999L99.4 96.0999L105.7 80.3999Z" fill="#F19953"/>
<path d="M101.5 7.30005L106.3 19.8L105.8 23.1L99.9 7.90005L101.5 7.30005Z" fill="#F19953"/>
<path d="M136 96.3001L134.4 96.9001L129.6 84.4001L130.1 81.1001L136 96.3001Z" fill="#F19953"/>
<path d="M136.6 8.1L130.2 23.9L129.7 20.7L135 7.5L136.6 8.1Z" fill="#F19953"/>
<path d="M141.878 74.8537L140.677 76.0559L144.213 79.5909L145.414 78.3887L141.878 74.8537Z" fill="#F19953"/>
<path d="M145.6 26L142 29.6L140.8 28.4L144.5 24.8L145.6 26Z" fill="#F19953"/>
<path d="M162.7 68.8001L162.1 70.3001L146.9 64.4001L150.1 63.8L162.7 68.8001Z" fill="#F19953"/>
<path d="M162.9 35.9999L150.6 40.5999L147.3 40.0999L162.3 34.3999L162.9 35.9999Z" fill="#F19953"/>
<path d="M128.9 58.7L168.6 52.2L128.9 45.7L140.3 29.9L124.4 41.3L117.9 1.5L111.5 41.3L95.6 29.9L107 45.7L67.3 52.2L107 58.7L95.6 74.5L111.5 63.1L117.9 102.9L124.4 63.1L140.3 74.5L128.9 58.7Z" fill="#F19953"/>
<path d="M41.1999 125.5L39.0999 127.7L38.2999 126.9L40.4999 124.8L41.1999 125.5Z" fill="#F19953"/>
<path d="M41.4 96.2L40.7 96.9L38.5 94.7L39.2 94L41.4 96.2Z" fill="#F19953"/>
<path d="M37.0999 118.4L28.1 121.8L27.7 120.8L35 118L37.0999 118.4Z" fill="#F19953"/>
<path d="M37.7999 103.4L35.7999 103.7L27.7999 100.6L28.1999 99.5999L37.7999 103.4Z" fill="#F19953"/>
<path d="M47.7999 128.3L48.0999 130.3L44.8999 138.3L43.8999 138L47.7999 128.3Z" fill="#F19953"/>
<path d="M45.1999 83.3L48.1999 91L47.8999 93L44.2999 83.7L45.1999 83.3Z" fill="#F19953"/>
<path d="M66.5 138.1L65.5 138.5L62.5 130.8L62.9 128.8L66.5 138.1Z" fill="#F19953"/>
<path d="M66.8 83.7999L62.9 93.4999L62.6 91.4999L65.9 83.3999L66.8 83.7999Z" fill="#F19953"/>
<path d="M70.0709 124.936L69.3639 125.643L71.5562 127.835L72.2632 127.128L70.0709 124.936Z" fill="#F19953"/>
<path d="M71.6621 94.0768L69.4518 96.2505L70.153 96.9635L72.3633 94.7898L71.6621 94.0768Z" fill="#F19953"/>
<path d="M82.9 121.1L82.6 122.1L73.2 118.4L75.2 118.1L82.9 121.1Z" fill="#F19953"/>
<path d="M83.0999 101L75.4999 103.8L73.3999 103.5L82.6999 100L83.0999 101Z" fill="#F19953"/>
<path d="M62.0999 114.9L86.5999 110.9L62.0999 106.9L69.0999 97.2L59.4 104.2L55.4 79.7L51.4 104.2L41.5999 97.2L48.5999 106.9L24.2 110.9L48.5999 114.9L41.5999 124.7L51.4 117.7L55.4 142.1L59.4 117.7L69.0999 124.7L62.0999 114.9Z" fill="#F19953"/>
</g>
<defs>
<clipPath id="clip0_618_632">
<rect width="172.5" height="172.5" fill="white"/>
</clipPath>
</defs>
</svg>
