<?xml version="1.0" encoding="utf-8"?>
<!-- Generator: Adobe Illustrator 23.0.3, SVG Export Plug-In . SVG Version: 6.00 Build 0)  -->
<svg version="1.1" id="Layer_1" xmlns="http://www.w3.org/2000/svg" xmlns:xlink="http://www.w3.org/1999/xlink" x="0px" y="0px"
	 viewBox="0 0 533 532.6" style="enable-background:new 0 0 533 532.6;" xml:space="preserve">
<style type="text/css">
	.st0{fill:#FFAC9A;}
</style>
<circle class="st0" cx="267.3" cy="264.8" r="259.5"/>
<g>
	<path d="M427.5,123.4c0-41.4-33.7-75.1-75.1-75.1s-75.1,33.7-75.1,75.1c0,22.9,10.5,44.6,28.4,58.8c-3.6,2.7-7.8,5.5-12.2,8.4
		c-3.2,2.1-6.4,4.2-9.6,6.4c-10.8-38.8-46.6-79.7-97.3-86c-22.3-2.8-40.1-11.2-52.9-24.9c-9.5-10.2-12.5-19.8-12.6-19.9
		c-0.4-1.4-1.6-2.3-3.1-2.5c-1.4-0.1-2.8,0.6-3.4,1.9c-6.5,13-9.2,31.5-7.1,48.3c1.8,14.6,7.9,34.9,26.7,48.7
		c12.1,8.9,13.7,25.3,15.5,44.2c2.6,26.5,5.5,56.6,38.4,76.2c13.9,8.2,26.2,11.1,36.6,11.1c8.4,0,15.6-1.9,21.4-4.4
		c5.8,19.4,9.8,37.8,11.4,53.3h-68.4c-1,0-1.9,0.4-2.6,1.1c-0.7,0.7-1,1.7-0.9,2.7l11.4,120.7c2.8,29.1,26.9,51.1,56.2,51.1h41.1
		c29.3,0,53.4-22,56.1-51.1l11.5-120.7c0.1-1-0.2-2-0.9-2.7c-0.7-0.7-1.6-1.1-2.6-1.1h-86.3c0.8-5.5,2.7-16.8,6.4-32.9
		c5.4,1.5,10.5,2.3,15.1,2.3c23.2,0,37.1-17.7,48.5-37.7c12.9-22.4,9.5-50,6.7-72.2c-0.2-1.4-0.4-2.8-0.5-4.2
		c1.2,0.1,2.5,0.1,3.7,0.1C393.9,198.4,427.5,164.8,427.5,123.4z M191.9,276.9c-29.9-17.7-32.5-44.7-35-70.8
		c-1.9-19.7-3.7-38.3-18.4-49.1C112.4,137.8,110,99.9,118,76c6.8,12.7,25,36.5,67.8,41.8c48.7,6.1,82.8,46.2,92.1,83.5
		c-0.1,0.1-0.3,0.2-0.4,0.3c-0.2,0.2-0.4,0.3-0.6,0.5c-0.3,0.2-0.5,0.4-0.8,0.6c-0.2,0.2-0.4,0.3-0.6,0.5c-0.3,0.2-0.6,0.5-0.8,0.7
		c-0.2,0.1-0.4,0.3-0.6,0.5c-0.3,0.3-0.7,0.6-1,0.9c-0.1,0.1-0.2,0.2-0.4,0.3c-0.5,0.4-0.9,0.8-1.4,1.3c-0.1,0.1-0.2,0.2-0.4,0.3
		c-0.4,0.3-0.7,0.6-1,1c-0.2,0.2-0.3,0.3-0.5,0.5c-0.3,0.3-0.6,0.6-0.9,0.9c-0.2,0.2-0.4,0.4-0.6,0.6c-0.3,0.3-0.5,0.6-0.8,0.9
		c-0.2,0.2-0.4,0.4-0.6,0.6c-0.3,0.3-0.5,0.6-0.8,0.9c-0.2,0.2-0.4,0.4-0.6,0.7c-0.3,0.3-0.5,0.6-0.7,0.9c-0.2,0.2-0.4,0.4-0.5,0.7
		c-0.2,0.3-0.5,0.6-0.7,0.9c-0.2,0.2-0.3,0.5-0.5,0.7c-0.2,0.3-0.4,0.7-0.7,1c-0.2,0.2-0.3,0.5-0.5,0.7c-0.2,0.4-0.4,0.7-0.6,1.1
		c-0.1,0.2-0.3,0.5-0.4,0.7c-0.2,0.4-0.4,0.8-0.7,1.2c-0.1,0.2-0.2,0.4-0.3,0.6c-0.3,0.6-0.6,1.2-0.9,1.9c-0.4,0.9-0.8,1.9-1.2,2.8
		c0,0.1,0,0.1-0.1,0.1c-0.4,0.9-0.7,1.9-1.1,2.9c0,0.1-0.1,0.2-0.1,0.2c-0.4,0.9-0.7,1.9-1,2.9c0,0.1-0.1,0.2-0.1,0.3
		c-0.3,1-0.6,2-0.9,3c0,0.1-0.1,0.3-0.1,0.4c-0.3,1-0.6,2-0.9,3c0,0.1-0.1,0.3-0.1,0.4c-0.3,1-0.5,2.1-0.8,3.1
		c0,0.1-0.1,0.3-0.1,0.4c-0.3,1.1-0.5,2.1-0.7,3.2c0,0.1-0.1,0.3-0.1,0.4c-0.2,1.1-0.4,2.2-0.6,3.3c0,0.1,0,0.3-0.1,0.4
		c-0.2,1.1-0.4,2.2-0.5,3.4c0,0.1,0,0.2,0,0.3c-0.1,1.1-0.3,2.3-0.4,3.4c0,0.1,0,0.1,0,0.2c-0.1,1.2-0.2,2.4-0.3,3.6
		c0,0,0,0.1,0,0.1c-0.1,2.4-0.2,4.9-0.1,7.3c0,0,0,0.1,0,0.1c0,1.2,0.1,2.3,0.2,3.5c0,0.1,0,0.2,0,0.3c0.1,1.1,0.2,2.2,0.4,3.3
		c0,0.1,0,0.2,0.1,0.3c0.1,1.1,0.3,2.1,0.5,3.2c0,0.1,0,0.2,0,0.2c-0.1,0-0.1,0.1-0.2,0.1c-6.8-21.3-15.6-43.5-25.6-64.3
		c-14.6-30.5-44.8-84.5-82.5-104c-1.7-0.9-3.8-0.2-4.7,1.5c-0.9,1.7-0.2,3.8,1.5,4.7c42.5,22,84,98.9,105,165.4
		C228.5,289.9,210.4,287.9,191.9,276.9z M343.9,466.9c-2.4,25.5-23.6,44.7-49.2,44.7h-41.1c-25.6,0-46.8-19.2-49.2-44.7L193.4,350
		h75.1c0,0,0,0,0,0s0,0,0,0H355L343.9,466.9z M264.9,343c-1.7-16.2-5.9-35.6-12.1-56.1c3.6,9.8,10.3,16.9,19.5,20.9
		c-4.1,18-6,29.9-6.8,35.2L264.9,343L264.9,343z M336.5,271.2c-14.7,25.5-29.3,39.9-56,32.1c0-0.2,0.1-0.3,0.1-0.5
		c0.6-2.5,1.2-5.1,1.9-7.7c0.1-0.4,0.2-0.9,0.3-1.3c0.7-2.6,1.3-5.3,2-7.9c0.1-0.4,0.2-0.8,0.3-1.1c0.7-2.8,1.5-5.5,2.2-8.3
		c0.1-0.3,0.1-0.5,0.2-0.8c0.8-2.9,1.6-5.9,2.5-8.8c10.4-36.3,26.3-63.7,34.8-76.8l0,0c3-4.7,5-7.2,5-7.2c1.2-1.5,0.9-3.7-0.7-4.9
		c-1.5-1.2-3.7-0.9-4.9,0.7c-0.1,0.1-2.1,2.7-5.3,7.6l0,0c-8.7,13.4-25,41.5-35.6,78.7c-0.8,2.8-1.6,5.6-2.4,8.4
		c-0.1,0.4-0.2,0.8-0.3,1.2c-0.7,2.6-1.4,5.3-2.1,7.9c-0.1,0.5-0.3,1-0.4,1.5c-0.7,2.6-1.3,5.1-2,7.7c-0.1,0.5-0.2,0.9-0.3,1.3
		c-0.6,2.6-1.3,5.2-1.9,7.8c0,0.1,0,0.2-0.1,0.2c-8-3.9-13.4-10.8-15.8-20.6c-4.4-17.4,1.1-39.9,7.1-53.9
		c2.9-6.8,8.9-13.4,18.8-20.8c4.4-3.2,9-6.3,13.5-9.3c6-4,11.7-7.7,16.3-11.6c0,0,0,0,0,0c5.1-4.3,8.2-8.1,9.7-12.2
		c10.7-27.4,25.4-31.8,32.9-32.1c-5.6,9.9-17.3,33.3-15.3,52.8l0.2,1.7c0.3,2.7,0.6,5.6,1,8.4C345.1,225.6,348.2,250.8,336.5,271.2z
		"/>
</g>
</svg>
