<svg width="165" height="72" viewBox="0 0 165 72" fill="none" xmlns="http://www.w3.org/2000/svg">
<path d="M162.001 39.8708C159.042 32.6982 153.575 28.6855 146.001 28.0334C145.951 28.4849 145.85 28.9363 145.7 29.3877C147.104 29.8391 148.409 30.9426 149.362 32.648C150.866 35.3064 151.97 38.3661 152.522 41.4257C153.976 49.3507 153.625 57.2256 150.565 64.7995C150.014 66.2039 149.161 67.5582 148.158 68.6617C145.249 71.8217 140.784 71.1696 138.728 66.9062C137.123 63.5957 136.17 59.884 135.217 56.2726C134.665 54.1158 134.715 51.8587 134.515 49.7019C134.715 45.1876 134.966 40.7737 136.421 36.6105H136.371C134.615 36.6105 132.809 36.1089 131.104 35.1559C130.552 34.855 130 34.5039 129.449 34.2029C128.345 35.507 127.342 37.0118 126.489 38.7172C123.329 45.0873 123.079 51.8085 125.336 58.4796C130.552 74.0286 147.756 74.781 156.384 67.7087C161.851 63.1944 163.907 57.1253 164.108 50.2536C164.259 50.053 163.306 43.081 162.001 39.8708Z" fill="#FFAC9A"/>
<path d="M97.8991 48.0969C97.8991 45.89 97.849 43.683 97.6985 41.4259C97.3976 34.6043 94.2877 29.1872 87.717 26.5288C85.2091 25.5257 82.7513 24.9739 80.3437 24.9238H80.2936C80.093 24.9238 79.8923 24.9238 79.6917 24.9238C79.4409 24.9238 79.1399 24.9238 78.8892 24.9739C69.4594 25.4755 64.7445 31.4444 62.1864 38.8176C60.782 42.8303 56.1173 53.3636 49.1453 58.6302C39.4647 64.9 27.0756 62.0911 20.4547 50.3039C13.6834 38.2157 13.1316 25.4755 18.1475 12.635C20.2541 7.21788 24.1664 3.30553 30.1854 1.90109C35.9536 0.546816 40.9695 2.90426 42.6749 8.17088C43.3269 10.1271 43.4272 12.2337 43.6279 14.3404C44.0291 18.353 46.7878 20.8609 50.8507 20.6603C54.6125 20.4597 57.2208 17.6007 57.1205 13.6381C57.0201 10.1271 55.3649 7.41851 52.6564 5.36202C46.6374 0.697291 39.6152 -0.356034 32.2921 0.0953909C24.5176 0.596974 17.3449 2.95442 11.5266 8.32136C-4.32347 22.9174 -3.72157 50.4544 12.6802 64.5489C18.0471 69.1634 24.2166 71.4707 30.3359 71.7215C32.6432 71.7215 34.9003 71.5209 36.9568 71.1698C51.8037 68.712 60.5814 57.7775 62.8887 43.1814C63.5909 38.8678 64.7947 35.6577 66.2493 33.3002C66.2493 33.4005 66.1991 33.4507 66.1991 33.551C68.707 29.6888 73.6225 26.3282 80.0428 26.0273C86.9646 25.8266 89.5729 29.4882 90.2249 32.2469C91.0275 35.5573 89.4726 38.2157 86.9646 40.0716C84.557 41.8773 81.7482 43.2316 79.0898 44.6862C75.027 46.843 70.7635 48.6988 66.801 51.0061C63.641 52.862 61.4842 55.7712 61.1833 59.6334C61.1833 59.7337 61.1833 59.834 61.1833 59.9343C60.7318 68.3609 69.0581 72.9253 76.2308 71.4707C80.3939 70.618 83.7545 68.4111 86.5634 65.0003C90.4757 70.4676 90.4757 70.4676 92.6325 71.1698C94.1874 71.6714 95.7423 71.8218 97.0966 71.7215C96.9963 71.3202 96.9461 70.919 96.9963 70.5177C97.4979 63.5959 97.8991 55.9718 97.9493 48.1471V48.0969H97.8991ZM84.3063 65.0505C80.0428 67.6085 75.1273 65.6022 73.8232 60.8372C72.6695 56.6239 73.4721 52.7115 76.5819 49.7522C79.3406 47.0938 82.5507 44.9871 85.6104 42.5795C85.811 42.73 86.0116 42.8805 86.2624 43.0309C86.2624 47.3947 86.2624 51.7083 86.2624 56.0721C86.2624 57.7775 86.1621 59.4829 86.4129 61.1381C86.7138 63.0943 85.811 64.1476 84.3063 65.0505Z" fill="#FFAC9A"/>
<path d="M141.637 28.0335C141.437 28.8862 141.035 29.6386 140.534 30.2907C140.333 30.5415 140.082 30.7923 139.781 30.9929C139.631 31.1434 139.43 31.2437 139.28 31.344C137.324 32.6481 135.267 32.4976 133.16 31.344C133.01 31.2437 132.859 31.1935 132.709 31.0932C130.853 30.0399 129.047 28.8862 127.141 28.0335C124.583 26.8799 122.828 27.4316 121.022 29.4881C118.614 32.2468 117.31 35.6576 117.26 39.1185C117.21 48.7991 117.611 58.4797 117.862 68.2104C117.862 68.9628 118.113 69.7151 118.314 70.7183H103.216C104.269 55.9216 104.771 41.2754 103.216 26.9301C107.78 25.024 112.295 23.1682 117.009 21.212V31.6449C117.21 31.6951 117.411 31.7954 117.561 31.8456C117.912 31.2938 118.263 30.6919 118.614 30.1402C121.624 25.0742 125.486 21.0114 131.405 19.4063C135.919 18.2025 140.082 20.1085 141.437 23.9707C141.888 25.4253 141.938 26.7796 141.637 28.0335Z" fill="#FFAC9A"/>
</svg>
