<svg preserveAspectRatio="xMidYMid meet" data-bbox="11.333 54.705 182.211 47.086" xmlns="http://www.w3.org/2000/svg" viewBox="11.333 54.705 182.211 47.086" role="presentation" aria-hidden="true">
    <g>
        <path d="M188.942 74H25.504l9.2-11.702c1.587-1.985 1.264-4.979-.72-6.566-1.985-1.586-4.88-1.313-6.467.671L12.34 75.359a4.585 4.585 0 0 0 0 5.735l15.176 18.973a4.589 4.589 0 0 0 3.597 1.724 4.587 4.587 0 0 0 2.871-1.009c1.984-1.587 2.307-4.387.72-6.372L25.504 83h163.438c2.541 0 4.602-1.959 4.602-4.5s-2.061-4.5-4.602-4.5z"></path>
    </g>
</svg>