<?xml version="1.0" encoding="utf-8"?>
<!-- Generator: Adobe Illustrator 23.0.3, SVG Export Plug-In . SVG Version: 6.00 Build 0)  -->
<svg version="1.1" id="Layer_1" xmlns="http://www.w3.org/2000/svg" xmlns:xlink="http://www.w3.org/1999/xlink" x="0px" y="0px"
	 viewBox="0 0 112.2 155.7" style="enable-background:new 0 0 112.2 155.7;" xml:space="preserve">
<style type="text/css">
	.st0{fill:#F5E2C8;}
</style>
<g>
	<path class="st0" d="M99.1,31c0-11.7-9.5-21.2-21.2-21.2S56.6,19.3,56.6,31c0,6.5,3,12.6,8,16.6c-1,0.8-2.2,1.6-3.4,2.4
		c-0.9,0.6-1.8,1.2-2.7,1.8c-3.1-11-13.2-22.5-27.5-24.3c-6.3-0.8-11.4-3.2-15-7c-2.7-2.9-3.6-5.6-3.6-5.6c-0.1-0.4-0.5-0.7-0.9-0.7
		c-0.4,0-0.8,0.2-1,0.5c-1.8,3.7-2.6,8.9-2,13.7c0.5,4.1,2.2,9.9,7.6,13.8c3.4,2.5,3.9,7.1,4.4,12.5c0.7,7.5,1.5,16,10.9,21.5
		c3.9,2.3,7.4,3.1,10.4,3.1c2.4,0,4.4-0.5,6.1-1.2c1.6,5.5,2.8,10.7,3.2,15.1H31.7c-0.3,0-0.5,0.1-0.7,0.3c-0.2,0.2-0.3,0.5-0.3,0.8
		l3.2,34.1c0.8,8.2,7.6,14.5,15.9,14.5h11.6c8.3,0,15.1-6.2,15.9-14.5l3.2-34.1c0-0.3-0.1-0.6-0.3-0.8c-0.2-0.2-0.5-0.3-0.7-0.3
		H55.2c0.2-1.6,0.8-4.7,1.8-9.3c1.5,0.4,3,0.6,4.3,0.6c6.6,0,10.5-5,13.7-10.7c3.6-6.3,2.7-14.2,1.9-20.4c0-0.4-0.1-0.8-0.1-1.2
		c0.3,0,0.7,0,1,0C89.5,52.2,99.1,42.7,99.1,31z M32.4,74.4c-8.5-5-9.2-12.7-9.9-20c-0.5-5.6-1-10.9-5.2-13.9
		c-7.4-5.4-8.1-16.2-5.8-22.9c1.9,3.6,7.1,10.3,19.2,11.8C44.5,31.1,54.1,42.5,56.7,53c0,0-0.1,0.1-0.1,0.1c-0.1,0-0.1,0.1-0.2,0.1
		c-0.1,0.1-0.1,0.1-0.2,0.2c-0.1,0-0.1,0.1-0.2,0.1c-0.1,0.1-0.2,0.1-0.2,0.2c-0.1,0-0.1,0.1-0.2,0.1c-0.1,0.1-0.2,0.2-0.3,0.3
		c0,0-0.1,0.1-0.1,0.1c-0.1,0.1-0.3,0.2-0.4,0.4c0,0-0.1,0.1-0.1,0.1c-0.1,0.1-0.2,0.2-0.3,0.3c0,0-0.1,0.1-0.1,0.1
		c-0.1,0.1-0.2,0.2-0.2,0.2c-0.1,0.1-0.1,0.1-0.2,0.2c-0.1,0.1-0.2,0.2-0.2,0.2c-0.1,0.1-0.1,0.1-0.2,0.2c-0.1,0.1-0.1,0.2-0.2,0.2
		c-0.1,0.1-0.1,0.1-0.2,0.2c-0.1,0.1-0.1,0.2-0.2,0.3c-0.1,0.1-0.1,0.1-0.1,0.2c-0.1,0.1-0.1,0.2-0.2,0.3c0,0.1-0.1,0.1-0.1,0.2
		c-0.1,0.1-0.1,0.2-0.2,0.3c0,0.1-0.1,0.1-0.1,0.2C52.1,57.9,52,58,52,58.1c0,0.1-0.1,0.1-0.1,0.2c-0.1,0.1-0.1,0.2-0.2,0.3
		c0,0.1-0.1,0.1-0.1,0.2c-0.1,0.2-0.2,0.3-0.2,0.5c-0.1,0.3-0.2,0.5-0.3,0.8c0,0,0,0,0,0c-0.1,0.3-0.2,0.5-0.3,0.8c0,0,0,0,0,0.1
		c-0.1,0.3-0.2,0.5-0.3,0.8c0,0,0,0.1,0,0.1c-0.1,0.3-0.2,0.6-0.3,0.8c0,0,0,0.1,0,0.1c-0.1,0.3-0.2,0.6-0.2,0.9c0,0,0,0.1,0,0.1
		c-0.1,0.3-0.2,0.6-0.2,0.9c0,0,0,0.1,0,0.1c-0.1,0.3-0.1,0.6-0.2,0.9c0,0,0,0.1,0,0.1c-0.1,0.3-0.1,0.6-0.2,0.9c0,0,0,0.1,0,0.1
		c-0.1,0.3-0.1,0.6-0.1,0.9c0,0,0,0.1,0,0.1c0,0.3-0.1,0.6-0.1,1c0,0,0,0,0,0.1c0,0.3-0.1,0.7-0.1,1c0,0,0,0,0,0
		c0,0.7-0.1,1.4,0,2.1c0,0,0,0,0,0c0,0.3,0,0.7,0.1,1c0,0,0,0,0,0.1c0,0.3,0.1,0.6,0.1,0.9c0,0,0,0.1,0,0.1c0,0.3,0.1,0.6,0.2,0.9
		c0,0,0,0,0,0.1c0,0,0,0-0.1,0c-1.9-6-4.4-12.3-7.2-18.2c-4.1-8.6-12.7-23.9-23.3-29.4c-0.5-0.3-1.1-0.1-1.3,0.4
		c-0.3,0.5-0.1,1.1,0.4,1.3c12,6.2,23.8,28,29.7,46.8C42.8,78.1,37.6,77.5,32.4,74.4z M75.4,128.2c-0.7,7.2-6.7,12.7-13.9,12.7H49.9
		c-7.2,0-13.2-5.4-13.9-12.7l-3.1-33.1h21.3c0,0,0,0,0,0c0,0,0,0,0,0h24.5L75.4,128.2z M53.1,93.1c-0.5-4.6-1.7-10.1-3.4-15.9
		c1,2.8,2.9,4.8,5.5,5.9c-1.2,5.1-1.7,8.5-1.9,10L53.1,93.1L53.1,93.1z M73.3,72.8C69.2,80,65,84.1,57.5,81.9c0,0,0-0.1,0-0.1
		c0.2-0.7,0.3-1.5,0.5-2.2c0-0.1,0.1-0.2,0.1-0.4c0.2-0.7,0.4-1.5,0.6-2.2c0-0.1,0.1-0.2,0.1-0.3c0.2-0.8,0.4-1.6,0.6-2.3
		c0-0.1,0-0.1,0.1-0.2c0.2-0.8,0.5-1.7,0.7-2.5c3-10.3,7.4-18,9.8-21.7l0,0c0.9-1.3,1.4-2,1.4-2c0.3-0.4,0.2-1.1-0.2-1.4
		c-0.4-0.3-1.1-0.2-1.4,0.2c0,0-0.6,0.8-1.5,2.2l0,0c-2.5,3.8-7.1,11.7-10.1,22.3c-0.2,0.8-0.5,1.6-0.7,2.4c0,0.1-0.1,0.2-0.1,0.3
		c-0.2,0.7-0.4,1.5-0.6,2.2c0,0.1-0.1,0.3-0.1,0.4c-0.2,0.7-0.4,1.5-0.6,2.2c0,0.1-0.1,0.3-0.1,0.4c-0.2,0.7-0.4,1.5-0.5,2.2
		c0,0,0,0,0,0.1c-2.3-1.1-3.8-3.1-4.5-5.8c-1.2-4.9,0.3-11.3,2-15.3c0.8-1.9,2.5-3.8,5.3-5.9c1.2-0.9,2.5-1.8,3.8-2.6
		c1.7-1.1,3.3-2.2,4.6-3.3c0,0,0,0,0,0c1.4-1.2,2.3-2.3,2.8-3.4c3-7.8,7.2-9,9.3-9.1c-1.6,2.8-4.9,9.4-4.3,14.9l0.1,0.5
		c0.1,0.8,0.2,1.6,0.3,2.4C75.7,59.9,76.6,67,73.3,72.8z"/>
</g>
</svg>
